<?xml version="1.0" encoding="utf-8"?>
<!-- Generator: Adobe Illustrator 25.4.1, SVG Export Plug-In . SVG Version: 6.00 Build 0)  -->
<svg version="1.1" id="Camada_1" xmlns="http://www.w3.org/2000/svg" xmlns:xlink="http://www.w3.org/1999/xlink" x="0px" y="0px"
	 viewBox="0 0 1025 302" style="enable-background:new 0 0 1025 302;" xml:space="preserve">
<style type="text/css">
	.st0{fill:#EE7C4F;}
	.st1{fill:#6C635A;}
	.st2{font-family:'Helvetica';}
	.st3{font-size:38.9884px;}
	.st4{letter-spacing:1;}
</style>
<g>
	<g>
		<path class="st0" d="M136.9,80.4v58c28.3,3,45.6,27.9,45.6,51.1v19.2c14.3-13.8,23.1-33.5,23.1-55.6
			C205.6,115.5,174.7,83.4,136.9,80.4z"/>
		<path class="st0" d="M131.1,149.7c-24.9,0-39.8,20.2-39.8,39.8c0,27.1,23.7,39.8,39.8,39.8c14.7,0,28.3-4.2,39.8-11.4v-28.4
			C170.8,170.4,155.6,149.7,131.1,149.7z"/>
		<path class="st0" d="M135.4,19C62.3,19,3,78.3,3,151.5s59.3,132.4,132.4,132.4c73.1,0,132.4-59.3,132.4-132.4S208.6,19,135.4,19z
			 M131.1,240.9c-24.7,0-51.4-19.7-51.4-51.4c0-23.7,16.9-48.2,45.6-51.1V68.6h5.8c46.7,0,86.2,38.7,86.2,84.5
			C217.2,202.3,179.4,240.9,131.1,240.9z"/>
	</g>
	<g>
		<g>
			<g>
				<g>
					<path class="st1" d="M482.7,173.2c-4.4,0-8.5-0.8-12.3-2.4c-3.8-1.6-7.1-3.8-9.9-6.6s-5-6.1-6.6-9.9c-1.6-3.8-2.4-7.9-2.4-12.3
						v-33.5h6.3v33.5c0,3.4,0.7,6.7,2,9.7c1.3,3,3.1,5.7,5.4,7.9s4.9,4.1,7.9,5.4c3,1.3,6.3,2,9.7,2c3.4,0,6.6-0.7,9.7-2
						c3-1.3,5.7-3.1,7.9-5.4c2.3-2.3,4.1-4.9,5.4-7.9c1.3-3,2-6.3,2-9.7v-33.5h6.3v33.5c0,4.4-0.8,8.5-2.5,12.3
						c-1.7,3.8-3.9,7.1-6.8,9.9c-2.9,2.8-6.2,5-10,6.6C491,172.4,487,173.2,482.7,173.2z"/>
				</g>
			</g>
			<g>
				<g>
					<path class="st1" d="M410.9,171.8c-10.5,0-19.1-8.6-19.1-19.1V97.9h6.3v54.8c0,7.1,5.7,12.8,12.8,12.8L410.9,171.8L410.9,171.8
						z"/>
				</g>
			</g>
			<g>
				<g>
					<path class="st1" d="M439.6,171.8c-10.5,0-19.1-8.6-19.1-19.1V97.9h6.3v54.8c0,7.1,5.7,12.8,12.8,12.8L439.6,171.8L439.6,171.8
						z"/>
				</g>
			</g>
			<g>
				<path class="st1" d="M370.7,127.5c-1.7-4.1-4.1-7.6-7-10.5c-3-3-6.5-5.3-10.5-7c-4.1-1.7-8.4-2.6-13-2.6c-4.7,0-9,0.9-13,2.6
					c-4,1.7-7.5,4.1-10.5,7c-3,3-5.3,6.5-7,10.5c-1.7,4.1-2.6,8.4-2.6,13c0,4.7,0.9,9,2.6,13c1.7,4,4.1,7.5,7,10.5
					c3,3,6.4,5.3,10.5,7c4,1.7,8.4,2.6,13,2.6c5.3,0,10.3-1.2,15-3.6c1.8-0.9,5.2-3.3,5.5-3.7c-1.1-1-3.7-3.4-4.9-4.4
					c-1.6,1.2-3.4,2.2-5.3,3c-3.2,1.4-6.6,2.1-10.3,2.1s-7-0.7-10.3-2.1c-3.2-1.4-6-3.3-8.4-5.7c-2.4-2.4-4.3-5.2-5.7-8.4
					c-1.4-3.2-2.1-6.6-2.1-10.3s0.7-7,2.1-10.3c1.4-3.2,3.3-6,5.7-8.4c2.4-2.4,5.2-4.3,8.4-5.7c3.2-1.4,6.6-2.1,10.3-2.1
					s7,0.7,10.3,2.1c3.2,1.4,6,3.3,8.4,5.7c2.4,2.4,4.3,5.2,5.7,8.4c1.4,3.2,2.1,6.6,2.1,10.3c0,0.1,0,0.2,0,0.2h0v19.6l0,0v11.9
					h6.6v-31.8C373.3,135.9,372.5,131.6,370.7,127.5z"/>
			</g>
			<g>
				<path class="st1" d="M608.3,161.8c-0.3,0.2-0.5,0.5-0.8,0.7c-4.3,3-9.3,4.5-15,4.5c-3.4,0-6.5-0.6-9.5-1.8c-3-1.2-5.6-2.8-8-4.8
					c-2.4-2-4.4-4.5-5.9-7.3c-1.5-2.8-2.6-5.9-3.1-9.3c-0.6-3.6,0-6.6,0-6.6c0.5-3.3,1.6-6.3,3.1-9.2s3.5-5.3,5.9-7.4
					c2.4-2,5.1-3.7,8-4.8c3-1.2,6.1-1.8,9.5-1.8c3.3,0,6.4,0.6,9.4,1.8s5.7,2.8,8.1,4.8c2.4,2,4.3,4.5,5.9,7.4
					c1.5,2.9,2.6,5.9,3.1,9.2h-46.6v6.6h41.3h11.9v-3.3c0-4.6-0.9-8.9-2.6-13c-1.7-4.1-4.1-7.6-7-10.5c-3-3-6.5-5.3-10.5-7
					c-4.1-1.7-8.4-2.6-13-2.6c-4.7,0-9,0.9-13,2.6c-4,1.7-7.5,4.1-10.5,7c-3,3-5.3,6.5-7,10.5c-1.7,4.1-2.6,8.4-2.6,13
					c0,4.7,0.9,9,2.6,13.1c1.7,4,4.1,7.5,7,10.5c3,3,6.4,5.3,10.5,7c4,1.7,8.4,2.6,13,2.6c3.6,0,7.1-0.6,10.5-1.8
					c3.4-1.2,6.4-2.8,9.2-4.8c0.3-0.3,0.7-0.6,1-0.9L608.3,161.8z"/>
			</g>
			<g>
				<path class="st1" d="M553.6,108.8L553.6,108.8c-4.4,0-8.5,0.8-12.3,2.4c-3.8,1.6-7.1,3.8-9.9,6.6c-2.8,2.8-5,6.1-6.6,10
					c-1.6,3.8-2.4,7.9-2.4,12.3v32.2h6.3v-32.2c0-3.4,0.7-6.6,2-9.7c1.3-3,3.1-5.7,5.4-7.9c2.3-2.3,4.9-4.1,7.9-5.4
					c3-1.3,6.3-2,9.7-2l0,0L553.6,108.8L553.6,108.8z"/>
			</g>
		</g>
	</g>
	<g>
		<g>
			<path class="st1" d="M912.6,105.8c4.3,0,8.4,0.8,12.3,2.4c3.8,1.6,7.2,3.8,10,6.6c2.8,2.8,5,6.1,6.6,10c1.6,3.8,2.4,7.9,2.4,12.3
				v33.6h-6.3v-33.6c0-3.4-0.7-6.6-2-9.7c-1.3-3-3.1-5.7-5.4-7.9c-2.3-2.3-4.9-4.1-7.9-5.4c-3-1.3-6.3-2-9.7-2c-3.4,0-6.6,0.7-9.7,2
				c-3,1.3-5.7,3.1-7.9,5.4c-2.3,2.3-4.1,4.9-5.4,7.9c-1.3,3.1-2,6.3-2,9.7v33.6h-6.3v-33.6c0-3.4-0.7-6.6-2-9.7
				c-1.3-3-3.1-5.7-5.4-7.9c-2.3-2.3-4.9-4.1-7.9-5.4c-3.1-1.3-6.3-2-9.7-2s-6.6,0.7-9.7,2s-5.7,3.1-7.9,5.4
				c-2.3,2.3-4.1,4.9-5.4,7.9c-1.3,3.1-2,6.3-2,9.7v33.6h-6.3v-33.6c0-4.3,0.8-8.4,2.5-12.3c1.7-3.8,3.9-7.2,6.8-10
				c2.9-2.8,6.2-5,10-6.6c3.8-1.6,7.8-2.4,12-2.4c3.1,0,6.1,0.4,9,1.3s5.5,2.1,7.9,3.7c2.4,1.6,4.6,3.4,6.5,5.6
				c1.9,2.1,3.5,4.4,4.8,6.9c1.3-2.5,2.9-4.8,4.8-6.9c2-2.1,4.2-4,6.6-5.6s5.1-2.8,7.9-3.7S909.6,105.8,912.6,105.8z"/>
			<path class="st1" d="M818,107.2L818,107.2c-4.4,0-8.5,0.8-12.3,2.4c-3.8,1.6-7.1,3.8-9.9,6.6c-2.8,2.8-5,6.1-6.6,10
				c-1.6,3.8-2.4,7.9-2.4,12.3v32.2h6.3v-32.2c0-3.4,0.7-6.6,2-9.7c1.3-3,3.1-5.7,5.4-7.9c2.3-2.3,4.9-4.1,7.9-5.4
				c3-1.3,6.3-2,9.7-2l0,0L818,107.2L818,107.2z"/>
			<path class="st1" d="M664.2,97.9h-25.6v45.8h6.3v-39.5h19.3c16.9,0,30.7,13.8,30.7,30.7c0,16.9-13.8,30.7-30.7,30.7h-10.5h-8.8
				h-6.3v6.3h25.6c20.4,0,37-16.5,37-37S684.7,97.9,664.2,97.9z"/>
			<path class="st1" d="M759,161.8c-0.3,0.2-0.5,0.5-0.8,0.7c-4.3,3-9.3,4.5-15,4.5c-3.4,0-6.5-0.6-9.5-1.8c-3-1.2-5.6-2.8-8-4.8
				c-2.4-2-4.4-4.5-5.9-7.3c-1.5-2.8-2.6-5.9-3.1-9.3c-0.6-3.6,0-6.6,0-6.6c0.5-3.3,1.6-6.3,3.1-9.2s3.5-5.3,5.9-7.4
				c2.4-2,5.1-3.7,8-4.8c3-1.2,6.1-1.8,9.5-1.8c3.3,0,6.4,0.6,9.4,1.8c3,1.2,5.7,2.8,8.1,4.8c2.4,2,4.3,4.5,5.9,7.4
				c1.5,2.9,2.6,5.9,3.1,9.2h-46.6v6.6h41.3h11.9v-3.3c0-4.6-0.9-8.9-2.6-13c-1.7-4.1-4.1-7.6-7-10.5c-3-3-6.5-5.3-10.5-7
				c-4.1-1.7-8.4-2.6-13-2.6c-4.7,0-9,0.9-13,2.6c-4,1.7-7.5,4.1-10.5,7c-3,3-5.3,6.5-7,10.5c-1.7,4.1-2.6,8.4-2.6,13
				c0,4.7,0.9,9,2.6,13.1c1.7,4,4.1,7.5,7,10.5c3,3,6.4,5.3,10.5,7c4,1.7,8.4,2.6,13,2.6c3.6,0,7.1-0.6,10.5-1.8
				c3.4-1.2,6.4-2.8,9.2-4.8c0.3-0.3,0.7-0.6,1-0.9L759,161.8z"/>
			<path class="st1" d="M1000,161.8c-0.3,0.2-0.5,0.5-0.8,0.7c-4.3,3-9.3,4.5-15,4.5c-3.4,0-6.5-0.6-9.5-1.8c-3-1.2-5.6-2.8-8-4.8
				c-2.4-2-4.4-4.5-5.9-7.3c-1.5-2.8-2.6-5.9-3.1-9.3c-0.6-3.6,0-6.6,0-6.6c0.5-3.3,1.6-6.3,3.1-9.2c1.5-2.9,3.5-5.3,5.9-7.4
				c2.4-2,5.1-3.7,8-4.8c3-1.2,6.1-1.8,9.5-1.8c3.3,0,6.4,0.6,9.4,1.8c3,1.2,5.7,2.8,8.1,4.8c2.4,2,4.3,4.5,5.9,7.4
				c1.5,2.9,2.6,5.9,3.1,9.2h-46.6v6.6h41.3h11.9v-3.3c0-4.6-0.9-8.9-2.6-13c-1.7-4.1-4.1-7.6-7-10.5c-3-3-6.5-5.3-10.5-7
				c-4.1-1.7-8.4-2.6-13-2.6c-4.7,0-9,0.9-13,2.6c-4,1.7-7.5,4.1-10.5,7c-3,3-5.3,6.5-7,10.5c-1.7,4.1-2.6,8.4-2.6,13
				c0,4.7,0.9,9,2.6,13.1c1.7,4,4.1,7.5,7,10.5c3,3,6.4,5.3,10.5,7c4,1.7,8.4,2.6,13,2.6c3.6,0,7.1-0.6,10.5-1.8
				c3.4-1.2,6.4-2.8,9.2-4.8c0.3-0.3,0.7-0.6,1-0.9L1000,161.8z"/>
		</g>
	</g>
	<g>
		<text transform="matrix(1 0 0 1 307.1177 218.7725)" class="st1 st2 st3 st4">dermatologia e medicina personalizada</text>
	</g>
</g>
</svg>
